<svg width="49" height="92" viewBox="0 0 49 92" fill="none" xmlns="http://www.w3.org/2000/svg">
<path opacity="0.743244" fill-rule="evenodd" clip-rule="evenodd" d="M6.80346 7.45951C-0.605178 -6.73327 -22.1795 1.23757 -18.5808 16.838C-16.8154 24.4911 -21.8612 32.0503 -29.6061 33.3554C-45.3936 36.0156 -44.4798 58.9971 -28.5308 60.3954C-20.7067 61.0813 -15.0767 68.216 -16.2289 75.9852C-18.5774 91.822 3.56172 98.0546 9.82 83.3184C12.8901 76.0892 21.4154 72.9394 28.4483 76.436C42.7843 83.5635 55.5532 64.4339 43.4721 53.9281C37.5455 48.7743 37.1843 39.6929 42.6831 34.0848C53.8918 22.6529 39.6442 4.59764 25.9194 12.841C19.1864 16.885 10.4379 14.4221 6.80346 7.45951ZM10.3378 56.0698C16.195 53.9058 19.1889 47.4034 17.0249 41.5463C14.8609 35.6891 8.35854 32.6952 2.50141 34.8592C-3.35573 37.0232 -6.34964 43.5256 -4.18567 49.3827C-2.0217 55.2398 4.48069 58.2337 10.3378 56.0698Z" fill="#2F80ED"/>
</svg>
