<svg width="130" height="130" viewBox="0 0 130 130" fill="none" xmlns="http://www.w3.org/2000/svg">
<path opacity="0.558958" d="M106.804 1.30428C108.467 -0.555686 111.411 1.5075 110.23 3.70518L100.321 22.1405C87.5268 45.9454 92.7109 75.4164 112.861 93.4261L128.465 107.373C130.326 109.036 128.262 111.98 126.064 110.799L107.629 100.891C83.8243 88.0966 54.3534 93.2807 36.3437 113.43L22.3963 129.035C20.7333 130.895 17.7894 128.832 18.9704 126.634L28.8789 108.199C41.6732 84.3942 36.4891 54.9233 16.3391 36.9134L0.734425 22.966C-1.12555 21.3032 0.937635 18.3593 3.13532 19.5402L21.5706 29.4486C45.3756 42.243 74.8465 37.0589 92.8564 16.909L106.804 1.30428Z" fill="#F2994A"/>
</svg>
