<svg width="108" height="108" viewBox="0 0 108 108" fill="none" xmlns="http://www.w3.org/2000/svg">
<path opacity="0.573693" d="M106.87 63.6719C108.527 64.231 108.008 66.6972 106.266 66.5418L91.6529 65.2366C72.7829 63.5513 55.2162 75.0157 49.1618 92.9673L44.4731 106.87C43.914 108.527 41.4478 108.009 41.6032 106.266L42.9084 91.6528C44.5938 72.7829 33.1293 55.2163 15.1777 49.1619L1.2754 44.4732C-0.381965 43.9141 0.136421 41.4479 1.87863 41.6033L16.4922 42.9085C35.3621 44.5938 52.9287 33.1294 58.9831 15.1777L63.6718 1.27531C64.2309 -0.381844 66.6971 0.136542 66.5417 1.87855L65.2365 16.4921C63.5512 35.3621 75.0157 52.9288 92.9673 58.9832L106.87 63.6719Z" fill="#F2994A"/>
</svg>
