<svg width="119" height="207" viewBox="0 0 119 207" fill="none" xmlns="http://www.w3.org/2000/svg">
<path opacity="0.944149" d="M118.504 195.233C105.694 201.567 91.7629 205.315 77.5049 206.264C63.2469 207.213 48.9416 205.344 35.4057 200.765C21.8699 196.185 9.36853 188.985 -1.3845 179.574C-12.1375 170.163 -20.9317 158.726 -27.2648 145.917C-33.5979 133.108 -37.346 119.176 -38.2951 104.918C-39.2442 90.6601 -37.3757 76.3548 -32.7962 62.819C-28.2168 49.2831 -21.0161 36.7818 -11.6053 26.0287C-2.19446 15.2757 9.24217 6.48158 22.0516 0.148438L37.8931 32.1896C29.2914 36.4424 21.6115 42.3478 15.292 49.5686C8.97247 56.7895 4.13708 65.1843 1.0619 74.2738C-2.01327 83.3634 -3.26802 92.9696 -2.63069 102.544C-1.99336 112.119 0.523562 121.474 4.77637 130.076C9.02916 138.677 14.9346 146.357 22.1554 152.677C29.3762 158.996 37.7711 163.832 46.8606 166.907C55.9502 169.982 65.5564 171.237 75.1309 170.599C84.7053 169.962 94.0605 167.445 102.662 163.192L118.504 195.233Z" fill="#9B51E0"/>
</svg>
