<svg width="1327" height="543" viewBox="0 0 1327 543" fill="none" xmlns="http://www.w3.org/2000/svg">
<rect y="2" width="1327" height="541" rx="60" fill="url(#paint0_linear_50_662)"/>
<g opacity="0.9">
<g clip-path="url(#clip0_50_662)">
<path d="M669.812 305.872L758.329 296.05L675.222 227.958L669.812 305.872Z" fill="#07256D" stroke="#07256D" stroke-linejoin="round"/>
<path d="M758.329 296.05L766.594 218.137L675.222 227.958L758.329 296.05Z" fill="#07236B" stroke="#07236B" stroke-linejoin="round"/>
<path d="M675.222 227.958L578.891 296.269L669.812 305.872L675.222 227.958Z" fill="#07216A" stroke="#07216A" stroke-linejoin="round"/>
<path d="M766.594 218.137L676.424 155.282L675.222 227.958L766.594 218.137Z" fill="#061964" stroke="#061964" stroke-linejoin="round"/>
<path d="M675.222 227.958L542.973 212.026L578.891 296.269L675.222 227.958Z" fill="#061964" stroke="#061964" stroke-linejoin="round"/>
<path d="M646.819 410.193L796.05 374.837L669.812 305.872L646.819 410.193Z" fill="#053477" stroke="#053477" stroke-linejoin="round"/>
<path d="M669.812 305.872L796.05 374.837L758.329 296.051L669.812 305.872Z" fill="#063075" stroke="#063075" stroke-linejoin="round"/>
<path d="M758.329 296.051L879.306 215.19L766.594 218.137L758.329 296.051Z" fill="#07276E" stroke="#07276E" stroke-linejoin="round"/>
<path d="M879.307 215.19L777.415 153.754L766.594 218.137L879.307 215.19Z" fill="#071F68" stroke="#071F68" stroke-linejoin="round"/>
<path d="M766.594 218.137L777.415 153.754L676.424 155.282L766.594 218.137Z" fill="#071963" stroke="#071963" stroke-linejoin="round"/>
<path d="M557.851 155.282L542.973 212.026L675.222 227.958L557.851 155.282Z" fill="#04105E" stroke="#04105E" stroke-linejoin="round"/>
<path d="M912.82 299.761L879.306 215.19L758.329 296.051L912.82 299.761Z" fill="#062F73" stroke="#062F73" stroke-linejoin="round"/>
<path d="M578.891 296.269L646.819 410.193L669.812 305.872L578.891 296.269Z" fill="#072B71" stroke="#072B71" stroke-linejoin="round"/>
<path d="M796.05 374.837L912.82 299.761L758.329 296.051L796.05 374.837Z" fill="#053578" stroke="#053578" stroke-linejoin="round"/>
<path d="M676.424 155.282H557.851L675.222 227.958L676.424 155.282Z" fill="#04105E" stroke="#04105E" stroke-linejoin="round"/>
<path d="M688.898 73.5488L557.851 155.282H676.424L688.898 73.5488Z" fill="#101B58" stroke="#101B58" stroke-linejoin="round"/>
<path d="M776.813 464.646L868.787 400.154L796.05 374.837L776.813 464.646Z" fill="#074482" stroke="#074482" stroke-linejoin="round"/>
<path d="M796.05 374.837L868.787 400.154L912.82 299.761L796.05 374.837Z" fill="#013E7E" stroke="#013E7E" stroke-linejoin="round"/>
<path d="M992.019 235.596L907.86 165.976L879.307 215.191L992.019 235.596Z" fill="#09296F" stroke="#09296F" stroke-linejoin="round"/>
<path d="M879.306 215.19L907.86 165.976L777.415 153.754L879.306 215.19Z" fill="#072069" stroke="#072069" stroke-linejoin="round"/>
<path d="M437.925 306.745L527.193 405.937L578.891 296.269L437.925 306.745Z" fill="#07236B" stroke="#07236B" stroke-linejoin="round"/>
<path d="M578.891 296.269L527.193 405.937L646.818 410.193L578.891 296.269Z" fill="#082D72" stroke="#082D72" stroke-linejoin="round"/>
<path d="M865.781 61.8728L769.6 81.6241L777.415 153.754L865.781 61.8728Z" fill="#142B5D" stroke="#142B5D" stroke-linejoin="round"/>
<path d="M777.415 153.754L769.6 81.624L676.424 155.282L777.415 153.754Z" fill="#10215D" stroke="#10215D" stroke-linejoin="round"/>
<path d="M769.6 81.6239L688.898 73.5488L676.424 155.282L769.6 81.6239Z" fill="#132459" stroke="#132459" stroke-linejoin="round"/>
<path d="M431.763 238.324L578.891 296.269L542.973 212.026L431.763 238.324Z" fill="#051461" stroke="#051461" stroke-linejoin="round"/>
<path d="M431.763 238.324L437.925 306.745L578.891 296.269L431.763 238.324Z" fill="#051763" stroke="#051763" stroke-linejoin="round"/>
<path d="M461.219 132.912L431.763 238.324L542.973 212.026L461.219 132.912Z" fill="#010658" stroke="#010658" stroke-linejoin="round"/>
<path d="M688.297 470.647L776.814 464.645L646.819 410.193L688.297 470.647Z" fill="#0D4281" stroke="#0D4281" stroke-linejoin="round"/>
<path d="M646.819 410.193L776.814 464.646L796.05 374.837L646.819 410.193Z" fill="#0A3F7F" stroke="#0A3F7F" stroke-linejoin="round"/>
<path d="M565.966 462.9L688.297 470.647L646.819 410.193L565.966 462.9Z" fill="#0F3D7D" stroke="#0F3D7D" stroke-linejoin="round"/>
<path d="M1021.78 317.111L992.019 235.596L912.82 299.761L1021.78 317.111Z" fill="#09397B" stroke="#09397B" stroke-linejoin="round"/>
<path d="M912.82 299.761L992.019 235.596L879.307 215.19L912.82 299.761Z" fill="#093075" stroke="#093075" stroke-linejoin="round"/>
<path d="M418.989 457.771L565.966 462.899L527.193 405.937L418.989 457.771Z" fill="#103476" stroke="#103476" stroke-linejoin="round"/>
<path d="M527.193 405.937L565.966 462.899L646.818 410.193L527.193 405.937Z" fill="#0E3678" stroke="#0E3678" stroke-linejoin="round"/>
<path d="M536.661 54.8889L461.219 132.912L557.851 155.282L536.661 54.8889Z" fill="#101551" stroke="#101551" stroke-linejoin="round"/>
<path d="M557.851 155.282L461.219 132.912L542.973 212.026L557.851 155.282Z" fill="#050A57" stroke="#050A57" stroke-linejoin="round"/>
<path d="M1014.11 413.358L912.82 299.761L868.787 400.154L1014.11 413.358Z" fill="#024583" stroke="#024583" stroke-linejoin="round"/>
<path d="M1014.11 413.358L1021.78 317.111L912.82 299.761L1014.11 413.358Z" fill="#054482" stroke="#054482" stroke-linejoin="round"/>
<path d="M341.443 310.455L426.954 383.022L437.925 306.745L341.443 310.455Z" fill="#0B2065" stroke="#0B2065" stroke-linejoin="round"/>
<path d="M437.925 306.745L426.954 383.022L527.193 405.937L437.925 306.745Z" fill="#07246C" stroke="#07246C" stroke-linejoin="round"/>
<path d="M1020.27 136.731L865.781 61.8728L907.86 165.976L1020.27 136.731Z" fill="#132F65" stroke="#132F65" stroke-linejoin="round"/>
<path d="M907.86 165.976L865.781 61.8728L777.415 153.754L907.86 165.976Z" fill="#112962" stroke="#112962" stroke-linejoin="round"/>
<path d="M769.6 81.6239L794.397 -1.30957L688.898 73.5488L769.6 81.6239Z" fill="#162F54" stroke="#162F54" stroke-linejoin="round"/>
<path d="M864.579 577.37L914.172 455.588L776.813 464.646L864.579 577.37Z" fill="#09558E" stroke="#09558E" stroke-linejoin="round"/>
<path d="M776.813 464.645L914.172 455.588L868.787 400.154L776.813 464.645Z" fill="#064B87" stroke="#064B87" stroke-linejoin="round"/>
<path d="M677.777 -11.2397L536.661 54.8888L688.898 73.5488L677.777 -11.2397Z" fill="#172A4E" stroke="#172A4E" stroke-linejoin="round"/>
<path d="M688.898 73.5489L536.661 54.8889L557.851 155.282L688.898 73.5489Z" fill="#131E52" stroke="#131E52" stroke-linejoin="round"/>
<path d="M1087.45 243.89L1020.27 136.731L992.019 235.596L1087.45 243.89Z" fill="#0E3074" stroke="#0E3074" stroke-linejoin="round"/>
<path d="M992.019 235.596L1020.27 136.731L907.86 165.976L992.019 235.596Z" fill="#0C286E" stroke="#0C286E" stroke-linejoin="round"/>
<path d="M914.172 455.588L1014.11 413.358L868.787 400.154L914.172 455.588Z" fill="#054E89" stroke="#054E89" stroke-linejoin="round"/>
<path d="M320.554 240.507L341.443 310.455L431.763 238.324L320.554 240.507Z" fill="#0C175B" stroke="#0C175B" stroke-linejoin="round"/>
<path d="M431.763 238.324L341.443 310.455L437.925 306.745L431.763 238.324Z" fill="#09185F" stroke="#09185F" stroke-linejoin="round"/>
<path d="M885.468 -18.3328L794.396 -1.30959L865.781 61.8726L885.468 -18.3328Z" fill="#143C54" stroke="#143C54" stroke-linejoin="round"/>
<path d="M865.781 61.8726L794.397 -1.30957L769.6 81.6239L865.781 61.8726Z" fill="#163457" stroke="#163457" stroke-linejoin="round"/>
<path d="M1121.71 295.614L1087.45 243.89L1021.77 317.111L1121.71 295.614Z" fill="#0D4180" stroke="#0D4180" stroke-linejoin="round"/>
<path d="M1021.77 317.111L1087.45 243.89L992.019 235.596L1021.77 317.111Z" fill="#0C3A7B" stroke="#0C3A7B" stroke-linejoin="round"/>
<path d="M794.397 -1.30956L677.777 -11.2397L688.898 73.5488L794.397 -1.30956Z" fill="#16324F" stroke="#16324F" stroke-linejoin="round"/>
<path d="M636.75 576.387L752.167 548.234L688.297 470.647L636.75 576.387Z" fill="#12508A" stroke="#12508A" stroke-linejoin="round"/>
<path d="M688.297 470.647L752.167 548.234L776.813 464.646L688.297 470.647Z" fill="#0F4D88" stroke="#0F4D88" stroke-linejoin="round"/>
<path d="M914.172 455.588L996.377 479.704L1014.11 413.358L914.172 455.588Z" fill="#06568E" stroke="#06568E" stroke-linejoin="round"/>
<path d="M310.936 134.548L431.763 238.324L461.219 132.912L310.936 134.548Z" fill="#070752" stroke="#070752" stroke-linejoin="round"/>
<path d="M310.936 134.549L320.554 240.507L431.763 238.324L310.936 134.549Z" fill="#0A0E54" stroke="#0A0E54" stroke-linejoin="round"/>
<path d="M329.721 395.243L418.989 457.771L426.954 383.021L329.721 395.243Z" fill="#112E6D" stroke="#112E6D" stroke-linejoin="round"/>
<path d="M426.954 383.021L418.989 457.771L527.193 405.937L426.954 383.021Z" fill="#0E2C71" stroke="#0E2C71" stroke-linejoin="round"/>
<path d="M565.966 462.899L636.75 576.387L688.297 470.647L565.966 462.899Z" fill="#134784" stroke="#134784" stroke-linejoin="round"/>
<path d="M461.219 -12.4399L416.435 58.0535L536.661 54.8889L461.219 -12.4399Z" fill="#172046" stroke="#172046" stroke-linejoin="round"/>
<path d="M536.661 54.8889L416.435 58.0535L461.219 132.912L536.661 54.8889Z" fill="#14184B" stroke="#14184B" stroke-linejoin="round"/>
<path d="M993.372 556.309L996.377 479.705L914.172 455.588L993.372 556.309Z" fill="#075D94" stroke="#075D94" stroke-linejoin="round"/>
<path d="M1105.33 388.259L1121.71 295.614L1021.77 317.111L1105.33 388.259Z" fill="#084986" stroke="#084986" stroke-linejoin="round"/>
<path d="M341.443 310.455L329.721 395.243L426.954 383.022L341.443 310.455Z" fill="#0E2867" stroke="#0E2867" stroke-linejoin="round"/>
<path d="M235.644 322.349L329.721 395.243L341.443 310.455L235.644 322.349Z" fill="#112961" stroke="#112961" stroke-linejoin="round"/>
<path d="M1105.33 388.259L1021.78 317.111L1014.11 413.358L1105.33 388.259Z" fill="#054D89" stroke="#054D89" stroke-linejoin="round"/>
<path d="M1119.01 51.8334L995.325 47.7959L1020.27 136.731L1119.01 51.8334Z" fill="#173E65" stroke="#173E65" stroke-linejoin="round"/>
<path d="M1133.59 130.62L1020.27 136.731L1087.45 243.89L1133.59 130.62Z" fill="#123172" stroke="#123172" stroke-linejoin="round"/>
<path d="M1020.27 136.731L995.325 47.7959L865.781 61.8728L1020.27 136.731Z" fill="#153862" stroke="#153862" stroke-linejoin="round"/>
<path d="M677.777 -11.2397L567.169 -23.5706L536.661 54.8888L677.777 -11.2397Z" fill="#172D48" stroke="#172D48" stroke-linejoin="round"/>
<path d="M451 564.711L541.771 554.672L418.989 457.771L451 564.711Z" fill="#173F7E" stroke="#173F7E" stroke-linejoin="round"/>
<path d="M418.989 457.771L541.771 554.672L565.966 462.9L418.989 457.771Z" fill="#143C7C" stroke="#143C7C" stroke-linejoin="round"/>
<path d="M541.771 554.672L636.75 576.387L565.966 462.899L541.771 554.672Z" fill="#154884" stroke="#154884" stroke-linejoin="round"/>
<path d="M1130.73 492.144L1105.33 388.259L1014.11 413.358L1130.73 492.144Z" fill="#075A91" stroke="#075A91" stroke-linejoin="round"/>
<path d="M995.325 47.7957L885.468 -18.3328L865.781 61.8726L995.325 47.7957Z" fill="#143E59" stroke="#143E59" stroke-linejoin="round"/>
<path d="M416.435 58.0535L310.936 134.549L461.219 132.912L416.435 58.0535Z" fill="#12154B" stroke="#12154B" stroke-linejoin="round"/>
<path d="M320.554 240.507L235.644 322.349L341.443 310.455L320.554 240.507Z" fill="#11215B" stroke="#11215B" stroke-linejoin="round"/>
<path d="M752.167 548.234L864.579 577.369L776.813 464.646L752.167 548.234Z" fill="#0E578F" stroke="#0E578F" stroke-linejoin="round"/>
<path d="M567.169 -23.5706L461.219 -12.44L536.661 54.8888L567.169 -23.5706Z" fill="#172845" stroke="#172845" stroke-linejoin="round"/>
<path d="M416.435 58.0535L313.19 73.8763L310.936 134.549L416.435 58.0535Z" fill="#161C46" stroke="#161C46" stroke-linejoin="round"/>
<path d="M1239.84 236.578L1133.59 130.62L1087.45 243.89L1239.84 236.578Z" fill="#133879" stroke="#133879" stroke-linejoin="round"/>
<path d="M995.325 47.7958L1020.72 -23.6797L885.468 -18.3327L995.325 47.7958Z" fill="#124658" stroke="#124658" stroke-linejoin="round"/>
<path d="M310.786 -15.3862L313.19 73.8763L416.435 58.0535L310.786 -15.3862Z" fill="#172441" stroke="#172441" stroke-linejoin="round"/>
<path d="M228.28 226.212L320.554 240.507L233.089 166.958L228.28 226.212Z" fill="#111750" stroke="#111750" stroke-linejoin="round"/>
<path d="M228.28 226.212L235.644 322.349L320.554 240.507L228.28 226.212Z" fill="#131F56" stroke="#131F56" stroke-linejoin="round"/>
<path d="M312.138 474.903L418.989 457.771L329.721 395.243L312.138 474.903Z" fill="#15366F" stroke="#15366F" stroke-linejoin="round"/>
<path d="M336.784 552.053L451 564.711L418.989 457.771L336.784 552.053Z" fill="#18407B" stroke="#18407B" stroke-linejoin="round"/>
<path d="M233.089 166.958L320.554 240.507L310.936 134.549L233.089 166.958Z" fill="#0F0F4E" stroke="#0F0F4E" stroke-linejoin="round"/>
<path d="M200.928 456.57L312.138 474.903L329.721 395.243L200.928 456.57Z" fill="#173B6B" stroke="#173B6B" stroke-linejoin="round"/>
<path d="M864.579 577.37L993.372 556.309L914.172 455.588L864.579 577.37Z" fill="#076095" stroke="#076095" stroke-linejoin="round"/>
<path d="M996.377 479.704L1130.73 492.144L1014.11 413.358L996.377 479.704Z" fill="#075D93" stroke="#075D93" stroke-linejoin="round"/>
<path d="M210.396 78.0229L233.089 166.958L310.936 134.549L210.396 78.0229Z" fill="#161C46" stroke="#161C46" stroke-linejoin="round"/>
<path d="M1133.59 130.62L1119.01 51.8335L1020.27 136.731L1133.59 130.62Z" fill="#173D6B" stroke="#173D6B" stroke-linejoin="round"/>
<path d="M1119.01 51.8334L1020.72 -23.6797L995.325 47.7958L1119.01 51.8334Z" fill="#15475E" stroke="#15475E" stroke-linejoin="round"/>
<path d="M1108.64 546.488L1130.73 492.145L996.377 479.705L1108.64 546.488Z" fill="#07679A" stroke="#07679A" stroke-linejoin="round"/>
<path d="M1241.79 300.416L1239.84 236.579L1121.71 295.614L1241.79 300.416Z" fill="#114885" stroke="#114885" stroke-linejoin="round"/>
<path d="M1121.71 295.614L1239.84 236.579L1087.45 243.89L1121.71 295.614Z" fill="#114180" stroke="#114180" stroke-linejoin="round"/>
<path d="M1108.64 546.488L996.377 479.705L993.372 556.309L1108.64 546.488Z" fill="#07679A" stroke="#07679A" stroke-linejoin="round"/>
<path d="M461.219 -12.4399L310.786 -15.3862L416.435 58.0535L461.219 -12.4399Z" fill="#172540" stroke="#172540" stroke-linejoin="round"/>
<path d="M99.0366 320.058L204.836 383.458L235.644 322.349L99.0366 320.058Z" fill="#15315B" stroke="#15315B" stroke-linejoin="round"/>
<path d="M235.644 322.349L204.836 383.458L329.721 395.243L235.644 322.349Z" fill="#133062" stroke="#133062" stroke-linejoin="round"/>
<path d="M99.0366 320.058L235.644 322.349L228.28 226.212L99.0366 320.058Z" fill="#152856" stroke="#152856" stroke-linejoin="round"/>
<path d="M1241.79 300.415L1121.71 295.614L1222.25 384.877L1241.79 300.415Z" fill="#0C508A" stroke="#0C508A" stroke-linejoin="round"/>
<path d="M1133.59 130.62L1204.37 80.2055L1119.01 51.8335L1133.59 130.62Z" fill="#18446B" stroke="#18446B" stroke-linejoin="round"/>
<path d="M1222.25 384.877L1121.71 295.614L1105.33 388.259L1222.25 384.877Z" fill="#07528C" stroke="#07528C" stroke-linejoin="round"/>
<path d="M235.944 545.069L336.784 552.053L312.138 474.903L235.944 545.069Z" fill="#1A4875" stroke="#1A4875" stroke-linejoin="round"/>
<path d="M312.138 474.903L336.785 552.053L418.989 457.771L312.138 474.903Z" fill="#183E75" stroke="#183E75" stroke-linejoin="round"/>
<path d="M1130.73 492.145L1222.25 384.877L1105.33 388.259L1130.73 492.145Z" fill="#075D94" stroke="#075D94" stroke-linejoin="round"/>
<path d="M1130.73 492.145L1244.8 465.082L1222.25 384.877L1130.73 492.145Z" fill="#076599" stroke="#076599" stroke-linejoin="round"/>
<path d="M313.19 73.8762L210.396 78.0229L310.936 134.549L313.19 73.8762Z" fill="#171F44" stroke="#171F44" stroke-linejoin="round"/>
<path d="M1239.84 236.578L1248.55 166.085L1133.59 130.62L1239.84 236.578Z" fill="#153979" stroke="#153979" stroke-linejoin="round"/>
<path d="M1332.41 213.772L1248.55 166.085L1239.84 236.579L1332.41 213.772Z" fill="#16417F" stroke="#16417F" stroke-linejoin="round"/>
<path d="M1248.55 166.085L1204.37 80.2053L1133.59 130.62L1248.55 166.085Z" fill="#184172" stroke="#184172" stroke-linejoin="round"/>
<path d="M310.785 -15.3862L210.396 78.023L313.19 73.8763L310.785 -15.3862Z" fill="#17273E" stroke="#17273E" stroke-linejoin="round"/>
<path d="M79.4998 248.037L99.0366 320.058L228.28 226.212L79.4998 248.037Z" fill="#162850" stroke="#162850" stroke-linejoin="round"/>
<path d="M1117.51 -24.4436L1020.72 -23.6797L1119.01 51.8333L1117.51 -24.4436Z" fill="#124E5D" stroke="#124E5D" stroke-linejoin="round"/>
<path d="M204.836 383.458L200.928 456.57L329.721 395.243L204.836 383.458Z" fill="#163866" stroke="#163866" stroke-linejoin="round"/>
<path d="M98.1349 411.284L200.929 456.57L204.836 383.458L98.1349 411.284Z" fill="#163E63" stroke="#163E63" stroke-linejoin="round"/>
<path d="M1204.67 3.1645L1117.51 -24.4436L1119.01 51.8333L1204.67 3.1645Z" fill="#135161" stroke="#135161" stroke-linejoin="round"/>
<path d="M1254.41 543.869L1130.73 492.145L1108.64 546.488L1254.41 543.869Z" fill="#0671A1" stroke="#0671A1" stroke-linejoin="round"/>
<path d="M1254.41 543.869L1244.8 465.082L1130.73 492.145L1254.41 543.869Z" fill="#0670A0" stroke="#0670A0" stroke-linejoin="round"/>
<path d="M1347.59 307.945L1239.84 236.579L1241.79 300.416L1347.59 307.945Z" fill="#124E89" stroke="#124E89" stroke-linejoin="round"/>
<path d="M1347.59 307.945L1332.41 213.772L1239.84 236.578L1347.59 307.945Z" fill="#154B87" stroke="#154B87" stroke-linejoin="round"/>
<path d="M200.928 456.57L235.944 545.069L312.138 474.903L200.928 456.57Z" fill="#19456F" stroke="#19456F" stroke-linejoin="round"/>
<path d="M79.4998 248.036L228.28 226.212L76.1936 158.665L79.4998 248.036Z" fill="#16204A" stroke="#16204A" stroke-linejoin="round"/>
<path d="M200.929 456.57L122.33 538.522L235.944 545.069L200.929 456.57Z" fill="#194D6E" stroke="#194D6E" stroke-linejoin="round"/>
<path d="M1331.51 58.7081L1204.67 3.16455L1204.37 80.2053L1331.51 58.7081Z" fill="#16526A" stroke="#16526A" stroke-linejoin="round"/>
<path d="M1204.37 80.2053L1204.67 3.16455L1119.01 51.8334L1204.37 80.2053Z" fill="#164D67" stroke="#164D67" stroke-linejoin="round"/>
<path d="M310.785 -15.3864L197.773 -34.8103L210.396 78.0228L310.785 -15.3864Z" fill="#153038" stroke="#153038" stroke-linejoin="round"/>
<path d="M76.1936 158.665L233.089 166.958L210.396 78.0229L76.1936 158.665Z" fill="#172043" stroke="#172043" stroke-linejoin="round"/>
<path d="M76.1936 158.665L228.28 226.212L233.089 166.958L76.1936 158.665Z" fill="#141849" stroke="#141849" stroke-linejoin="round"/>
<path d="M1327.75 386.841L1241.79 300.416L1222.25 384.877L1327.75 386.841Z" fill="#085A91" stroke="#085A91" stroke-linejoin="round"/>
<path d="M1248.55 166.085L1331.51 58.7083L1204.37 80.2055L1248.55 166.085Z" fill="#194972" stroke="#194972" stroke-linejoin="round"/>
<path d="M12.9243 381.385L98.1349 411.284L99.0366 320.058L12.9243 381.385Z" fill="#143D59" stroke="#143D59" stroke-linejoin="round"/>
<path d="M99.0366 320.058L98.1349 411.284L204.836 383.458L99.0366 320.058Z" fill="#15395C" stroke="#15395C" stroke-linejoin="round"/>
<path d="M1360.81 467.374L1327.75 386.841L1244.8 465.082L1360.81 467.374Z" fill="#076C9D" stroke="#076C9D" stroke-linejoin="round"/>
<path d="M1244.8 465.082L1327.75 386.841L1222.25 384.877L1244.8 465.082Z" fill="#076498" stroke="#076498" stroke-linejoin="round"/>
<path d="M1327.75 386.841L1347.59 307.945L1241.79 300.416L1327.75 386.841Z" fill="#0D5990" stroke="#0D5990" stroke-linejoin="round"/>
<path d="M107.603 51.5061L76.1936 158.665L210.396 78.023L107.603 51.5061Z" fill="#17293D" stroke="#17293D" stroke-linejoin="round"/>
<path d="M98.1349 411.284L107.002 455.479L200.929 456.57L98.1349 411.284Z" fill="#174564" stroke="#174564" stroke-linejoin="round"/>
<path d="M1332.41 213.772L1345.94 155.173L1248.55 166.085L1332.41 213.772Z" fill="#183F7E" stroke="#183F7E" stroke-linejoin="round"/>
<path d="M123.382 -12.9856L107.603 51.5061L210.396 78.0229L123.382 -12.9856Z" fill="#143137" stroke="#143137" stroke-linejoin="round"/>
<path d="M1345.94 155.173L1331.51 58.7083L1248.55 166.085L1345.94 155.173Z" fill="#1A4877" stroke="#1A4877" stroke-linejoin="round"/>
<path d="M1204.67 3.16457L1221.95 -87.5166L1117.51 -24.4435L1204.67 3.16457Z" fill="#105561" stroke="#105561" stroke-linejoin="round"/>
<path d="M107.002 455.479L122.33 538.522L200.929 456.57L107.002 455.479Z" fill="#174B69" stroke="#174B69" stroke-linejoin="round"/>
<path d="M10.3695 458.971L122.33 538.522L107.002 455.479L10.3695 458.971Z" fill="#155065" stroke="#155065" stroke-linejoin="round"/>
<path d="M122.33 538.522L231.887 640.443L235.944 545.069L122.33 538.522Z" fill="#195272" stroke="#195272" stroke-linejoin="round"/>
<path d="M197.773 -34.8103L123.382 -12.9857L210.396 78.0228L197.773 -34.8103Z" fill="#133335" stroke="#133335" stroke-linejoin="round"/>
<path d="M-22.843 233.087L79.4998 248.036L76.1936 158.665L-22.843 233.087Z" fill="#172646" stroke="#172646" stroke-linejoin="round"/>
<path d="M1254.41 543.869L1360.81 467.374L1244.8 465.082L1254.41 543.869Z" fill="#0574A2" stroke="#0574A2" stroke-linejoin="round"/>
<path d="M1322.94 -76.9317L1221.95 -87.5166L1204.67 3.16457L1322.94 -76.9317Z" fill="#0F5A64" stroke="#0F5A64" stroke-linejoin="round"/>
<path d="M-11.8723 317.002L12.9244 381.385L99.0366 320.058L-11.8723 317.002Z" fill="#143B54" stroke="#143B54" stroke-linejoin="round"/>
<path d="M98.1348 411.284L10.3695 458.971L107.002 455.479L98.1348 411.284Z" fill="#154960" stroke="#154960" stroke-linejoin="round"/>
<path d="M-11.8723 317.002L99.0366 320.058L79.4998 248.036L-11.8723 317.002Z" fill="#163250" stroke="#163250" stroke-linejoin="round"/>
<path d="M-11.8723 317.002L79.4998 248.037L-22.843 233.087L-11.8723 317.002Z" fill="#17304B" stroke="#17304B" stroke-linejoin="round"/>
<path d="M-22.843 233.087L76.1936 158.665L-35.4668 153.318L-22.843 233.087Z" fill="#172441" stroke="#172441" stroke-linejoin="round"/>
<path d="M1254.41 543.869L1353.3 564.929L1360.81 467.374L1254.41 543.869Z" fill="#027DA8" stroke="#027DA8" stroke-linejoin="round"/>
<path d="M-35.4668 153.318L76.1936 158.665L-14.7277 82.2788L-35.4668 153.318Z" fill="#162B3B" stroke="#162B3B" stroke-linejoin="round"/>
<path d="M-106.851 385.531L10.3695 458.971L12.9243 381.385L-106.851 385.531Z" fill="#124859" stroke="#124859" stroke-linejoin="round"/>
<path d="M12.9243 381.385L10.3695 458.971L98.1349 411.284L12.9243 381.385Z" fill="#14475C" stroke="#14475C" stroke-linejoin="round"/>
<path d="M122.331 538.522L97.8344 655.283L231.887 640.443L122.331 538.522Z" fill="#18556F" stroke="#18556F" stroke-linejoin="round"/>
<path d="M-14.7278 82.2788L76.1935 158.665L107.603 51.5061L-14.7278 82.2788Z" fill="#162E3A" stroke="#162E3A" stroke-linejoin="round"/>
<path d="M-106.851 385.531L12.9243 381.385L-11.8724 317.002L-106.851 385.531Z" fill="#124054" stroke="#124054" stroke-linejoin="round"/>
<path d="M1331.51 58.7082L1349.39 -29.7905L1204.67 3.1646L1331.51 58.7082Z" fill="#115B67" stroke="#115B67" stroke-linejoin="round"/>
<path d="M-25.3978 2.18237L-14.7277 82.2786L107.603 51.5059L-25.3978 2.18237Z" fill="#0F3831" stroke="#0F3831" stroke-linejoin="round"/>
<path d="M-25.3978 2.18249L107.603 51.5061L123.382 -12.9856L-25.3978 2.18249Z" fill="#0C3A30" stroke="#0C3A30" stroke-linejoin="round"/>
<path d="M1349.39 -29.7905L1322.94 -76.9316L1204.67 3.1646L1349.39 -29.7905Z" fill="#0E5D66" stroke="#0E5D66" stroke-linejoin="round"/>
<path d="M-140.214 467.265L-3.90732 541.468L10.3696 458.971L-140.214 467.265Z" fill="#105662" stroke="#105662" stroke-linejoin="round"/>
<path d="M10.3695 458.971L-3.90735 541.468L122.33 538.522L10.3695 458.971Z" fill="#135766" stroke="#135766" stroke-linejoin="round"/>
<path d="M13.3752 632.367L97.8344 655.283L122.331 538.522L13.3752 632.367Z" fill="#145A6B" stroke="#145A6B" stroke-linejoin="round"/>
<path d="M-23.5944 -80.3145L-25.3978 2.18249L123.382 -12.9856L-23.5944 -80.3145Z" fill="#033E2B" stroke="#033E2B" stroke-linejoin="round"/>
<path d="M-3.90735 541.468L13.3752 632.367L122.33 538.522L-3.90735 541.468Z" fill="#125C6A" stroke="#125C6A" stroke-linejoin="round"/>
<path d="M-130.746 537.103L13.3752 632.367L-3.90738 541.468L-130.746 537.103Z" fill="#0D5F67" stroke="#0D5F67" stroke-linejoin="round"/>
<path d="M-106.851 385.531L-140.214 467.264L10.3696 458.971L-106.851 385.531Z" fill="#124D5C" stroke="#124D5C" stroke-linejoin="round"/>
<path d="M-130.746 537.103L-116.019 658.993L13.3752 632.367L-130.746 537.103Z" fill="#0D5F67" stroke="#0D5F67" stroke-linejoin="round"/>
</g>
</g>
<defs>
<linearGradient id="paint0_linear_50_662" x1="663.5" y1="2" x2="663.5" y2="543" gradientUnits="userSpaceOnUse">
<stop stop-color="#051747"/>
<stop offset="1" stop-color="#03429A"/>
</linearGradient>
<clipPath id="clip0_50_662">
<rect width="1327" height="542" rx="60" fill="white"/>
</clipPath>
</defs>
</svg>
