<svg width="311" height="484" viewBox="0 0 311 484" fill="none" xmlns="http://www.w3.org/2000/svg">
<g opacity="0.9">
<g clip-path="url(#clip0_53_1323)">
<path d="M156.979 273.14L177.724 264.37L158.247 203.564L156.979 273.14Z" fill="#07256D" stroke="#07256D" stroke-linejoin="round"/>
<path d="M177.724 264.37L179.662 194.794L158.247 203.564L177.724 264.37Z" fill="#07236B" stroke="#07236B" stroke-linejoin="round"/>
<path d="M158.247 203.564L135.671 264.565L156.979 273.14L158.247 203.564Z" fill="#07216A" stroke="#07216A" stroke-linejoin="round"/>
<path d="M179.662 194.794L158.529 138.665L158.247 203.564L179.662 194.794Z" fill="#061964" stroke="#061964" stroke-linejoin="round"/>
<path d="M158.247 203.564L127.253 189.337L135.671 264.565L158.247 203.564Z" fill="#061964" stroke="#061964" stroke-linejoin="round"/>
<path d="M151.591 366.298L186.565 334.726L156.979 273.14L151.591 366.298Z" fill="#053477" stroke="#053477" stroke-linejoin="round"/>
<path d="M156.979 273.14L186.565 334.726L177.724 264.37L156.979 273.14Z" fill="#063075" stroke="#063075" stroke-linejoin="round"/>
<path d="M177.724 264.37L206.077 192.163L179.662 194.794L177.724 264.37Z" fill="#07276E" stroke="#07276E" stroke-linejoin="round"/>
<path d="M206.077 192.163L182.197 137.301L179.661 194.794L206.077 192.163Z" fill="#071F68" stroke="#071F68" stroke-linejoin="round"/>
<path d="M179.662 194.794L182.197 137.301L158.529 138.665L179.662 194.794Z" fill="#071963" stroke="#071963" stroke-linejoin="round"/>
<path d="M130.74 138.665L127.253 189.337L158.247 203.564L130.74 138.665Z" fill="#04105E" stroke="#04105E" stroke-linejoin="round"/>
<path d="M213.931 267.683L206.077 192.163L177.724 264.37L213.931 267.683Z" fill="#062F73" stroke="#062F73" stroke-linejoin="round"/>
<path d="M135.671 264.565L151.59 366.298L156.979 273.14L135.671 264.565Z" fill="#072B71" stroke="#072B71" stroke-linejoin="round"/>
<path d="M186.565 334.726L213.931 267.683L177.724 264.37L186.565 334.726Z" fill="#053578" stroke="#053578" stroke-linejoin="round"/>
<path d="M158.529 138.665H130.74L158.247 203.564L158.529 138.665Z" fill="#04105E" stroke="#04105E" stroke-linejoin="round"/>
<path d="M161.452 65.6783L130.74 138.665H158.529L161.452 65.6783Z" fill="#101B58" stroke="#101B58" stroke-linejoin="round"/>
<path d="M182.057 414.923L203.612 357.333L186.565 334.726L182.057 414.923Z" fill="#074482" stroke="#074482" stroke-linejoin="round"/>
<path d="M186.565 334.726L203.612 357.333L213.931 267.683L186.565 334.726Z" fill="#013E7E" stroke="#013E7E" stroke-linejoin="round"/>
<path d="M232.493 210.385L212.769 148.215L206.077 192.163L232.493 210.385Z" fill="#09296F" stroke="#09296F" stroke-linejoin="round"/>
<path d="M206.077 192.163L212.769 148.215L182.198 137.301L206.077 192.163Z" fill="#072069" stroke="#072069" stroke-linejoin="round"/>
<path d="M102.634 273.919L123.555 362.497L135.671 264.565L102.634 273.919Z" fill="#07236B" stroke="#07236B" stroke-linejoin="round"/>
<path d="M135.671 264.565L123.555 362.497L151.59 366.298L135.671 264.565Z" fill="#082D72" stroke="#082D72" stroke-linejoin="round"/>
<path d="M202.907 55.2516L180.366 72.8892L182.197 137.301L202.907 55.2516Z" fill="#142B5D" stroke="#142B5D" stroke-linejoin="round"/>
<path d="M182.197 137.301L180.366 72.8893L158.529 138.665L182.197 137.301Z" fill="#10215D" stroke="#10215D" stroke-linejoin="round"/>
<path d="M180.366 72.8893L161.452 65.6783L158.529 138.665L180.366 72.8893Z" fill="#132459" stroke="#132459" stroke-linejoin="round"/>
<path d="M101.189 212.821L135.671 264.565L127.253 189.337L101.189 212.821Z" fill="#051461" stroke="#051461" stroke-linejoin="round"/>
<path d="M101.189 212.821L102.634 273.92L135.671 264.565L101.189 212.821Z" fill="#051763" stroke="#051763" stroke-linejoin="round"/>
<path d="M108.093 118.689L101.189 212.821L127.253 189.337L108.093 118.689Z" fill="#010658" stroke="#010658" stroke-linejoin="round"/>
<path d="M161.312 420.283L182.057 414.923L151.591 366.298L161.312 420.283Z" fill="#0D4281" stroke="#0D4281" stroke-linejoin="round"/>
<path d="M151.591 366.298L182.057 414.923L186.565 334.726L151.591 366.298Z" fill="#0A3F7F" stroke="#0A3F7F" stroke-linejoin="round"/>
<path d="M132.642 413.364L161.311 420.283L151.59 366.298L132.642 413.364Z" fill="#0F3D7D" stroke="#0F3D7D" stroke-linejoin="round"/>
<path d="M239.467 283.177L232.493 210.385L213.931 267.683L239.467 283.177Z" fill="#09397B" stroke="#09397B" stroke-linejoin="round"/>
<path d="M213.931 267.683L232.493 210.385L206.077 192.163L213.931 267.683Z" fill="#093075" stroke="#093075" stroke-linejoin="round"/>
<path d="M98.1958 408.784L132.642 413.364L123.555 362.498L98.1958 408.784Z" fill="#103476" stroke="#103476" stroke-linejoin="round"/>
<path d="M123.555 362.498L132.642 413.364L151.59 366.298L123.555 362.498Z" fill="#0E3678" stroke="#0E3678" stroke-linejoin="round"/>
<path d="M125.774 49.0151L108.093 118.689L130.74 138.665L125.774 49.0151Z" fill="#101551" stroke="#101551" stroke-linejoin="round"/>
<path d="M130.74 138.665L108.093 118.689L127.253 189.337L130.74 138.665Z" fill="#050A57" stroke="#050A57" stroke-linejoin="round"/>
<path d="M237.67 369.124L213.931 267.683L203.612 357.333L237.67 369.124Z" fill="#024583" stroke="#024583" stroke-linejoin="round"/>
<path d="M237.67 369.124L239.467 283.177L213.931 267.683L237.67 369.124Z" fill="#054482" stroke="#054482" stroke-linejoin="round"/>
<path d="M80.0217 277.233L100.062 342.034L102.634 273.92L80.0217 277.233Z" fill="#0B2065" stroke="#0B2065" stroke-linejoin="round"/>
<path d="M102.634 273.92L100.062 342.034L123.555 362.498L102.634 273.92Z" fill="#07246C" stroke="#07246C" stroke-linejoin="round"/>
<path d="M239.114 122.099L202.907 55.2516L212.769 148.215L239.114 122.099Z" fill="#132F65" stroke="#132F65" stroke-linejoin="round"/>
<path d="M212.769 148.215L202.907 55.2516L182.198 137.301L212.769 148.215Z" fill="#112962" stroke="#112962" stroke-linejoin="round"/>
<path d="M180.366 72.8893L186.177 -1.16931L161.452 65.6784L180.366 72.8893Z" fill="#162F54" stroke="#162F54" stroke-linejoin="round"/>
<path d="M202.626 515.584L214.248 406.835L182.057 414.923L202.626 515.584Z" fill="#09558E" stroke="#09558E" stroke-linejoin="round"/>
<path d="M182.057 414.923L214.248 406.835L203.612 357.333L182.057 414.923Z" fill="#064B87" stroke="#064B87" stroke-linejoin="round"/>
<path d="M158.846 -10.0369L125.774 49.0151L161.452 65.6783L158.846 -10.0369Z" fill="#172A4E" stroke="#172A4E" stroke-linejoin="round"/>
<path d="M161.452 65.6783L125.774 49.0151L130.74 138.665L161.452 65.6783Z" fill="#131E52" stroke="#131E52" stroke-linejoin="round"/>
<path d="M254.858 217.791L239.114 122.099L232.493 210.385L254.858 217.791Z" fill="#0E3074" stroke="#0E3074" stroke-linejoin="round"/>
<path d="M232.493 210.385L239.114 122.099L212.769 148.215L232.493 210.385Z" fill="#0C286E" stroke="#0C286E" stroke-linejoin="round"/>
<path d="M214.248 406.835L237.67 369.124L203.612 357.333L214.248 406.835Z" fill="#054E89" stroke="#054E89" stroke-linejoin="round"/>
<path d="M75.126 214.77L80.0217 277.233L101.189 212.821L75.126 214.77Z" fill="#0C175B" stroke="#0C175B" stroke-linejoin="round"/>
<path d="M101.189 212.821L80.0217 277.233L102.634 273.92L101.189 212.821Z" fill="#09185F" stroke="#09185F" stroke-linejoin="round"/>
<path d="M207.521 -16.3708L186.177 -1.16934L202.907 55.2516L207.521 -16.3708Z" fill="#143C54" stroke="#143C54" stroke-linejoin="round"/>
<path d="M202.907 55.2517L186.177 -1.16931L180.366 72.8893L202.907 55.2517Z" fill="#163457" stroke="#163457" stroke-linejoin="round"/>
<path d="M262.888 263.98L254.858 217.791L239.467 283.177L262.888 263.98Z" fill="#0D4180" stroke="#0D4180" stroke-linejoin="round"/>
<path d="M239.466 283.177L254.858 217.791L232.493 210.385L239.466 283.177Z" fill="#0C3A7B" stroke="#0C3A7B" stroke-linejoin="round"/>
<path d="M186.177 -1.16932L158.846 -10.0369L161.452 65.6783L186.177 -1.16932Z" fill="#16324F" stroke="#16324F" stroke-linejoin="round"/>
<path d="M149.231 514.708L176.28 489.567L161.311 420.283L149.231 514.708Z" fill="#12508A" stroke="#12508A" stroke-linejoin="round"/>
<path d="M161.312 420.283L176.28 489.567L182.057 414.923L161.312 420.283Z" fill="#0F4D88" stroke="#0F4D88" stroke-linejoin="round"/>
<path d="M214.248 406.835L233.514 428.371L237.67 369.124L214.248 406.835Z" fill="#06568E" stroke="#06568E" stroke-linejoin="round"/>
<path d="M72.8718 120.15L101.189 212.821L108.093 118.689L72.8718 120.15Z" fill="#070752" stroke="#070752" stroke-linejoin="round"/>
<path d="M72.8718 120.15L75.126 214.77L101.189 212.821L72.8718 120.15Z" fill="#0A0E54" stroke="#0A0E54" stroke-linejoin="round"/>
<path d="M77.2744 352.948L98.1956 408.784L100.062 342.034L77.2744 352.948Z" fill="#112E6D" stroke="#112E6D" stroke-linejoin="round"/>
<path d="M100.063 342.034L98.1958 408.784L123.555 362.498L100.063 342.034Z" fill="#0E2C71" stroke="#0E2C71" stroke-linejoin="round"/>
<path d="M132.642 413.364L149.231 514.708L161.311 420.283L132.642 413.364Z" fill="#134784" stroke="#134784" stroke-linejoin="round"/>
<path d="M108.093 -11.1088L97.5969 51.8411L125.774 49.0151L108.093 -11.1088Z" fill="#172046" stroke="#172046" stroke-linejoin="round"/>
<path d="M125.774 49.0151L97.5969 51.8411L108.093 118.689L125.774 49.0151Z" fill="#14184B" stroke="#14184B" stroke-linejoin="round"/>
<path d="M232.81 496.777L233.514 428.371L214.248 406.835L232.81 496.777Z" fill="#075D94" stroke="#075D94" stroke-linejoin="round"/>
<path d="M259.049 346.711L262.888 263.98L239.467 283.177L259.049 346.711Z" fill="#084986" stroke="#084986" stroke-linejoin="round"/>
<path d="M80.0216 277.233L77.2744 352.948L100.062 342.034L80.0216 277.233Z" fill="#0E2867" stroke="#0E2867" stroke-linejoin="round"/>
<path d="M55.2263 287.854L77.2746 352.948L80.0218 277.233L55.2263 287.854Z" fill="#112961" stroke="#112961" stroke-linejoin="round"/>
<path d="M259.049 346.711L239.466 283.177L237.67 369.124L259.049 346.711Z" fill="#054D89" stroke="#054D89" stroke-linejoin="round"/>
<path d="M262.254 46.2866L233.268 42.6812L239.114 122.099L262.254 46.2866Z" fill="#173E65" stroke="#173E65" stroke-linejoin="round"/>
<path d="M265.671 116.642L239.114 122.099L254.858 217.791L265.671 116.642Z" fill="#123172" stroke="#123172" stroke-linejoin="round"/>
<path d="M239.114 122.099L233.268 42.6812L202.907 55.2516L239.114 122.099Z" fill="#153862" stroke="#153862" stroke-linejoin="round"/>
<path d="M158.846 -10.0369L132.924 -21.0482L125.774 49.0152L158.846 -10.0369Z" fill="#172D48" stroke="#172D48" stroke-linejoin="round"/>
<path d="M105.698 504.281L126.971 495.316L98.1958 408.784L105.698 504.281Z" fill="#173F7E" stroke="#173F7E" stroke-linejoin="round"/>
<path d="M98.1958 408.784L126.971 495.316L132.642 413.364L98.1958 408.784Z" fill="#143C7C" stroke="#143C7C" stroke-linejoin="round"/>
<path d="M126.971 495.316L149.231 514.708L132.642 413.364L126.971 495.316Z" fill="#154884" stroke="#154884" stroke-linejoin="round"/>
<path d="M265.002 439.48L259.049 346.711L237.67 369.124L265.002 439.48Z" fill="#075A91" stroke="#075A91" stroke-linejoin="round"/>
<path d="M233.268 42.6812L207.521 -16.3708L202.907 55.2516L233.268 42.6812Z" fill="#143E59" stroke="#143E59" stroke-linejoin="round"/>
<path d="M97.5969 51.8411L72.8718 120.15L108.093 118.689L97.5969 51.8411Z" fill="#12154B" stroke="#12154B" stroke-linejoin="round"/>
<path d="M75.1261 214.77L55.2263 287.854L80.0218 277.233L75.1261 214.77Z" fill="#11215B" stroke="#11215B" stroke-linejoin="round"/>
<path d="M176.28 489.567L202.625 515.585L182.057 414.923L176.28 489.567Z" fill="#0E578F" stroke="#0E578F" stroke-linejoin="round"/>
<path d="M132.923 -21.0482L108.093 -11.1088L125.774 49.0152L132.923 -21.0482Z" fill="#172845" stroke="#172845" stroke-linejoin="round"/>
<path d="M97.5969 51.8411L73.4001 65.9707L72.8718 120.15L97.5969 51.8411Z" fill="#161C46" stroke="#161C46" stroke-linejoin="round"/>
<path d="M290.572 211.262L265.671 116.642L254.858 217.791L290.572 211.262Z" fill="#133879" stroke="#133879" stroke-linejoin="round"/>
<path d="M233.268 42.6812L239.22 -21.1456L207.521 -16.3708L233.268 42.6812Z" fill="#124658" stroke="#124658" stroke-linejoin="round"/>
<path d="M72.8367 -13.7399L73.4002 65.9706L97.5969 51.841L72.8367 -13.7399Z" fill="#172441" stroke="#172441" stroke-linejoin="round"/>
<path d="M53.5005 202.005L75.1261 214.77L54.6276 149.092L53.5005 202.005Z" fill="#111750" stroke="#111750" stroke-linejoin="round"/>
<path d="M53.5005 202.005L55.2263 287.854L75.1261 214.77L53.5005 202.005Z" fill="#131F56" stroke="#131F56" stroke-linejoin="round"/>
<path d="M73.1538 424.083L98.1958 408.784L77.2746 352.948L73.1538 424.083Z" fill="#15366F" stroke="#15366F" stroke-linejoin="round"/>
<path d="M78.9299 492.977L105.698 504.281L98.1957 408.784L78.9299 492.977Z" fill="#18407B" stroke="#18407B" stroke-linejoin="round"/>
<path d="M54.6274 149.092L75.126 214.77L72.8718 120.15L54.6274 149.092Z" fill="#0F0F4E" stroke="#0F0F4E" stroke-linejoin="round"/>
<path d="M47.0903 407.712L73.1538 424.083L77.2746 352.948L47.0903 407.712Z" fill="#173B6B" stroke="#173B6B" stroke-linejoin="round"/>
<path d="M202.625 515.584L232.81 496.777L214.248 406.835L202.625 515.584Z" fill="#076095" stroke="#076095" stroke-linejoin="round"/>
<path d="M233.514 428.371L265.002 439.479L237.67 369.124L233.514 428.371Z" fill="#075D93" stroke="#075D93" stroke-linejoin="round"/>
<path d="M49.3091 69.6736L54.6274 149.092L72.8718 120.15L49.3091 69.6736Z" fill="#161C46" stroke="#161C46" stroke-linejoin="round"/>
<path d="M265.671 116.642L262.254 46.2866L239.114 122.099L265.671 116.642Z" fill="#173D6B" stroke="#173D6B" stroke-linejoin="round"/>
<path d="M262.254 46.2867L239.22 -21.1456L233.268 42.6812L262.254 46.2867Z" fill="#15475E" stroke="#15475E" stroke-linejoin="round"/>
<path d="M259.824 488.008L265.002 439.48L233.514 428.371L259.824 488.008Z" fill="#07679A" stroke="#07679A" stroke-linejoin="round"/>
<path d="M291.03 268.268L290.572 211.262L262.888 263.98L291.03 268.268Z" fill="#114885" stroke="#114885" stroke-linejoin="round"/>
<path d="M262.888 263.98L290.572 211.262L254.858 217.791L262.888 263.98Z" fill="#114180" stroke="#114180" stroke-linejoin="round"/>
<path d="M259.824 488.008L233.514 428.371L232.81 496.778L259.824 488.008Z" fill="#07679A" stroke="#07679A" stroke-linejoin="round"/>
<path d="M108.093 -11.1088L72.8367 -13.7399L97.5969 51.841L108.093 -11.1088Z" fill="#172540" stroke="#172540" stroke-linejoin="round"/>
<path d="M23.2104 285.808L48.0059 342.424L55.2262 287.854L23.2104 285.808Z" fill="#15315B" stroke="#15315B" stroke-linejoin="round"/>
<path d="M55.2264 287.854L48.0061 342.424L77.2746 352.948L55.2264 287.854Z" fill="#133062" stroke="#133062" stroke-linejoin="round"/>
<path d="M23.2104 285.808L55.2262 287.854L53.5004 202.005L23.2104 285.808Z" fill="#152856" stroke="#152856" stroke-linejoin="round"/>
<path d="M291.03 268.268L262.888 263.98L286.451 343.69L291.03 268.268Z" fill="#0C508A" stroke="#0C508A" stroke-linejoin="round"/>
<path d="M265.671 116.642L282.26 71.6225L262.254 46.2866L265.671 116.642Z" fill="#18446B" stroke="#18446B" stroke-linejoin="round"/>
<path d="M286.451 343.69L262.888 263.98L259.049 346.711L286.451 343.69Z" fill="#07528C" stroke="#07528C" stroke-linejoin="round"/>
<path d="M55.2966 486.741L78.9298 492.977L73.1536 424.083L55.2966 486.741Z" fill="#1A4875" stroke="#1A4875" stroke-linejoin="round"/>
<path d="M73.1538 424.083L78.93 492.977L98.1958 408.784L73.1538 424.083Z" fill="#183E75" stroke="#183E75" stroke-linejoin="round"/>
<path d="M265.002 439.479L286.451 343.69L259.049 346.711L265.002 439.479Z" fill="#075D94" stroke="#075D94" stroke-linejoin="round"/>
<path d="M265.001 439.479L291.734 415.313L286.451 343.69L265.001 439.479Z" fill="#076599" stroke="#076599" stroke-linejoin="round"/>
<path d="M73.4001 65.9707L49.3091 69.6736L72.8718 120.15L73.4001 65.9707Z" fill="#171F44" stroke="#171F44" stroke-linejoin="round"/>
<path d="M290.572 211.262L292.615 148.312L265.671 116.642L290.572 211.262Z" fill="#153979" stroke="#153979" stroke-linejoin="round"/>
<path d="M312.268 190.896L292.615 148.312L290.572 211.262L312.268 190.896Z" fill="#16417F" stroke="#16417F" stroke-linejoin="round"/>
<path d="M292.615 148.312L282.26 71.6226L265.671 116.642L292.615 148.312Z" fill="#184172" stroke="#184172" stroke-linejoin="round"/>
<path d="M72.8366 -13.7399L49.3091 69.6735L73.4001 65.9706L72.8366 -13.7399Z" fill="#17273E" stroke="#17273E" stroke-linejoin="round"/>
<path d="M18.6318 221.494L23.2105 285.808L53.5005 202.005L18.6318 221.494Z" fill="#162850" stroke="#162850" stroke-linejoin="round"/>
<path d="M261.902 -21.8278L239.22 -21.1456L262.254 46.2867L261.902 -21.8278Z" fill="#124E5D" stroke="#124E5D" stroke-linejoin="round"/>
<path d="M48.0061 342.424L47.0903 407.712L77.2746 352.948L48.0061 342.424Z" fill="#163866" stroke="#163866" stroke-linejoin="round"/>
<path d="M22.9993 367.272L47.0903 407.712L48.0061 342.424L22.9993 367.272Z" fill="#163E63" stroke="#163E63" stroke-linejoin="round"/>
<path d="M282.33 2.82597L261.902 -21.8278L262.254 46.2867L282.33 2.82597Z" fill="#135161" stroke="#135161" stroke-linejoin="round"/>
<path d="M293.988 485.669L265.002 439.479L259.824 488.007L293.988 485.669Z" fill="#0671A1" stroke="#0671A1" stroke-linejoin="round"/>
<path d="M293.988 485.669L291.734 415.313L265.001 439.479L293.988 485.669Z" fill="#0670A0" stroke="#0670A0" stroke-linejoin="round"/>
<path d="M315.825 274.991L290.572 211.262L291.03 268.268L315.825 274.991Z" fill="#124E89" stroke="#124E89" stroke-linejoin="round"/>
<path d="M315.825 274.991L312.268 190.896L290.572 211.262L315.825 274.991Z" fill="#154B87" stroke="#154B87" stroke-linejoin="round"/>
<path d="M47.0903 407.712L55.2968 486.741L73.1538 424.083L47.0903 407.712Z" fill="#19456F" stroke="#19456F" stroke-linejoin="round"/>
<path d="M18.6318 221.494L53.5004 202.005L17.8569 141.686L18.6318 221.494Z" fill="#16204A" stroke="#16204A" stroke-linejoin="round"/>
<path d="M47.0902 407.712L28.6697 480.894L55.2966 486.741L47.0902 407.712Z" fill="#194D6E" stroke="#194D6E" stroke-linejoin="round"/>
<path d="M312.057 52.4257L282.33 2.82593L282.26 71.6225L312.057 52.4257Z" fill="#16526A" stroke="#16526A" stroke-linejoin="round"/>
<path d="M282.26 71.6225L282.33 2.82593L262.254 46.2867L282.26 71.6225Z" fill="#164D67" stroke="#164D67" stroke-linejoin="round"/>
<path d="M72.8367 -13.7398L46.3506 -31.0851L49.3091 69.6736L72.8367 -13.7398Z" fill="#153038" stroke="#153038" stroke-linejoin="round"/>
<path d="M17.8569 141.686L54.6275 149.092L49.3091 69.6736L17.8569 141.686Z" fill="#172043" stroke="#172043" stroke-linejoin="round"/>
<path d="M17.8569 141.686L53.5004 202.005L54.6275 149.092L17.8569 141.686Z" fill="#141849" stroke="#141849" stroke-linejoin="round"/>
<path d="M311.176 345.445L291.03 268.268L286.451 343.691L311.176 345.445Z" fill="#085A91" stroke="#085A91" stroke-linejoin="round"/>
<path d="M292.615 148.312L312.057 52.4258L282.26 71.6226L292.615 148.312Z" fill="#194972" stroke="#194972" stroke-linejoin="round"/>
<path d="M3.02905 340.572L22.9993 367.272L23.2106 285.808L3.02905 340.572Z" fill="#143D59" stroke="#143D59" stroke-linejoin="round"/>
<path d="M23.2106 285.808L22.9993 367.272L48.0061 342.424L23.2106 285.808Z" fill="#15395C" stroke="#15395C" stroke-linejoin="round"/>
<path d="M318.925 417.359L311.176 345.445L291.734 415.313L318.925 417.359Z" fill="#076C9D" stroke="#076C9D" stroke-linejoin="round"/>
<path d="M291.734 415.313L311.176 345.444L286.451 343.69L291.734 415.313Z" fill="#076498" stroke="#076498" stroke-linejoin="round"/>
<path d="M311.176 345.445L315.825 274.991L291.03 268.268L311.176 345.445Z" fill="#0D5990" stroke="#0D5990" stroke-linejoin="round"/>
<path d="M25.2181 45.9943L17.8569 141.686L49.3091 69.6735L25.2181 45.9943Z" fill="#17293D" stroke="#17293D" stroke-linejoin="round"/>
<path d="M22.9993 367.272L25.0773 406.738L47.0903 407.712L22.9993 367.272Z" fill="#174564" stroke="#174564" stroke-linejoin="round"/>
<path d="M312.268 190.896L315.438 138.568L292.615 148.312L312.268 190.896Z" fill="#183F7E" stroke="#183F7E" stroke-linejoin="round"/>
<path d="M28.9162 -11.5961L25.218 45.9943L49.3091 69.6735L28.9162 -11.5961Z" fill="#143137" stroke="#143137" stroke-linejoin="round"/>
<path d="M315.438 138.568L312.057 52.4258L292.615 148.312L315.438 138.568Z" fill="#1A4877" stroke="#1A4877" stroke-linejoin="round"/>
<path d="M282.33 2.82591L286.381 -78.1514L261.902 -21.8278L282.33 2.82591Z" fill="#105561" stroke="#105561" stroke-linejoin="round"/>
<path d="M25.0771 406.738L28.6697 480.894L47.0902 407.712L25.0771 406.738Z" fill="#174B69" stroke="#174B69" stroke-linejoin="round"/>
<path d="M2.43018 409.856L28.6697 480.894L25.0772 406.738L2.43018 409.856Z" fill="#155065" stroke="#155065" stroke-linejoin="round"/>
<path d="M28.6697 480.894L54.3457 571.908L55.2966 486.741L28.6697 480.894Z" fill="#195272" stroke="#195272" stroke-linejoin="round"/>
<path d="M46.3506 -31.0851L28.9163 -11.596L49.3091 69.6736L46.3506 -31.0851Z" fill="#133335" stroke="#133335" stroke-linejoin="round"/>
<path d="M-5.35352 208.144L18.6319 221.494L17.857 141.686L-5.35352 208.144Z" fill="#172646" stroke="#172646" stroke-linejoin="round"/>
<path d="M293.988 485.669L318.925 417.359L291.734 415.313L293.988 485.669Z" fill="#0574A2" stroke="#0574A2" stroke-linejoin="round"/>
<path d="M311.176 345.445L334.739 279.571L315.825 274.991L311.176 345.445Z" fill="#0C5B92" stroke="#0C5B92" stroke-linejoin="round"/>
<path d="M310.049 -68.6991L286.381 -78.1514L282.33 2.82591L310.049 -68.6991Z" fill="#0F5A64" stroke="#0F5A64" stroke-linejoin="round"/>
<path d="M-2.78247 283.079L3.02897 340.572L23.2105 285.808L-2.78247 283.079Z" fill="#143B54" stroke="#143B54" stroke-linejoin="round"/>
<path d="M22.9991 367.272L2.43018 409.856L25.0772 406.738L22.9991 367.272Z" fill="#154960" stroke="#154960" stroke-linejoin="round"/>
<path d="M-2.78247 283.079L23.2105 285.808L18.6318 221.494L-2.78247 283.079Z" fill="#163250" stroke="#163250" stroke-linejoin="round"/>
<path d="M-2.78239 283.079L18.6319 221.494L-5.35352 208.144L-2.78239 283.079Z" fill="#17304B" stroke="#17304B" stroke-linejoin="round"/>
<path d="M-5.35346 208.144L17.8571 141.686L-8.31201 136.911L-5.35346 208.144Z" fill="#172441" stroke="#172441" stroke-linejoin="round"/>
<path d="M334.527 354.117L334.739 279.571L311.176 345.445L334.527 354.117Z" fill="#076095" stroke="#076095" stroke-linejoin="round"/>
<path d="M293.988 485.669L317.164 504.476L318.925 417.359L293.988 485.669Z" fill="#027DA8" stroke="#027DA8" stroke-linejoin="round"/>
<path d="M-8.31201 136.911L17.8571 141.686L-3.45154 73.474L-8.31201 136.911Z" fill="#162B3B" stroke="#162B3B" stroke-linejoin="round"/>
<path d="M318.925 417.359L334.527 354.117L311.176 345.445L318.925 417.359Z" fill="#07699B" stroke="#07699B" stroke-linejoin="round"/>
<path d="M-25.042 344.275L2.43026 409.856L3.02901 340.572L-25.042 344.275Z" fill="#124859" stroke="#124859" stroke-linejoin="round"/>
<path d="M3.02893 340.572L2.43018 409.856L22.9991 367.272L3.02893 340.572Z" fill="#14475C" stroke="#14475C" stroke-linejoin="round"/>
<path d="M28.6697 480.894L22.9287 585.161L54.3457 571.908L28.6697 480.894Z" fill="#18556F" stroke="#18556F" stroke-linejoin="round"/>
<path d="M-3.45166 73.4739L17.8569 141.686L25.2181 45.9943L-3.45166 73.4739Z" fill="#162E3A" stroke="#162E3A" stroke-linejoin="round"/>
<path d="M-25.042 344.275L3.02901 340.572L-2.78242 283.079L-25.042 344.275Z" fill="#124054" stroke="#124054" stroke-linejoin="round"/>
<path d="M312.057 52.4257L316.248 -26.6027L282.33 2.8259L312.057 52.4257Z" fill="#115B67" stroke="#115B67" stroke-linejoin="round"/>
<path d="M-5.95239 1.94885L-3.45171 73.4739L25.218 45.9943L-5.95239 1.94885Z" fill="#0F3831" stroke="#0F3831" stroke-linejoin="round"/>
<path d="M-5.95239 1.94887L25.218 45.9943L28.9162 -11.5961L-5.95239 1.94887Z" fill="#0C3A30" stroke="#0C3A30" stroke-linejoin="round"/>
<path d="M316.248 -26.6026L310.049 -68.6991L282.33 2.82596L316.248 -26.6026Z" fill="#0E5D66" stroke="#0E5D66" stroke-linejoin="round"/>
<path d="M-32.8611 417.262L-0.915785 483.525L2.43019 409.856L-32.8611 417.262Z" fill="#105662" stroke="#105662" stroke-linejoin="round"/>
<path d="M2.43021 409.856L-0.915771 483.525L28.6697 480.894L2.43021 409.856Z" fill="#135766" stroke="#135766" stroke-linejoin="round"/>
<path d="M3.13477 564.697L22.9289 585.161L28.6699 480.894L3.13477 564.697Z" fill="#145A6B" stroke="#145A6B" stroke-linejoin="round"/>
<path d="M-5.52974 -71.72L-5.95239 1.94888L28.9162 -11.5961L-5.52974 -71.72Z" fill="#033E2B" stroke="#033E2B" stroke-linejoin="round"/>
<path d="M-0.915771 483.525L3.13462 564.697L28.6697 480.894L-0.915771 483.525Z" fill="#125C6A" stroke="#125C6A" stroke-linejoin="round"/>
<path d="M-30.6421 479.627L3.1347 564.697L-0.915699 483.525L-30.6421 479.627Z" fill="#0D5F67" stroke="#0D5F67" stroke-linejoin="round"/>
<path d="M-25.0421 344.275L-32.8611 417.262L2.43019 409.856L-25.0421 344.275Z" fill="#124D5C" stroke="#124D5C" stroke-linejoin="round"/>
<path d="M-30.6421 479.627L-27.1904 588.474L3.1347 564.697L-30.6421 479.627Z" fill="#0D5F67" stroke="#0D5F67" stroke-linejoin="round"/>
</g>
</g>
<defs>
<clipPath id="clip0_53_1323">
<rect width="311" height="484" rx="30" fill="white"/>
</clipPath>
</defs>
</svg>
