<svg width="83" height="83" viewBox="0 0 83 83" fill="none" xmlns="http://www.w3.org/2000/svg">
<path opacity="0.573693" d="M80.1269 4.24421C81.5448 3.22035 83.2508 5.07524 82.1121 6.40271L72.5587 17.5378C60.2226 31.9163 59.3461 52.8747 70.4384 68.2329L79.0287 80.1268C80.0527 81.5449 78.1978 83.2508 76.8702 82.112L65.7351 72.5586C51.3567 60.2226 30.3984 59.3461 15.0402 70.4384L3.14625 79.0287C1.72819 80.0527 0.0222182 78.1978 1.16104 76.8702L10.7145 65.7351C23.0504 51.3567 23.927 30.3984 12.8345 15.0401L4.2442 3.14613C3.22035 1.72822 5.07524 0.0222559 6.40271 1.16093L17.5378 10.7144C31.9163 23.0504 52.8747 23.927 68.233 12.8345L80.1269 4.24421Z" fill="#F2994A"/>
</svg>
