<svg width="105" height="218" viewBox="0 0 105 218" fill="none" xmlns="http://www.w3.org/2000/svg">
<path opacity="0.944149" d="M113.013 217.469C98.7337 218.012 84.4873 215.738 71.087 210.776C57.6867 205.814 45.395 198.261 34.9138 188.548C24.4325 178.836 15.9669 167.154 10.0002 154.169C4.03362 141.185 0.682872 127.153 0.139294 112.874C-0.404284 98.5944 1.86996 84.348 6.83218 70.9477C11.7944 57.5474 19.3474 45.2557 29.0599 34.7745C38.7725 24.2932 50.4544 15.8276 63.4386 9.86094C76.4229 3.89433 90.4552 0.543577 104.734 0L106.094 35.7175C96.5053 36.0825 87.0824 38.3326 78.3633 42.3393C69.6442 46.346 61.7996 52.0308 55.2775 59.0691C48.7553 66.1075 43.6834 74.3615 40.3512 83.36C37.019 92.3585 35.4918 101.925 35.8568 111.514C36.2218 121.103 38.4719 130.526 42.4786 139.245C46.4852 147.964 52.17 155.808 59.2084 162.331C66.2468 168.853 74.5008 173.925 83.4993 177.257C92.4978 180.589 102.065 182.116 111.653 181.751L113.013 217.469Z" fill="#9B51E0"/>
</svg>
