<svg width="145" height="132" viewBox="0 0 145 132" fill="none" xmlns="http://www.w3.org/2000/svg">
<path opacity="0.762557" d="M3.35043 108.154C0.934498 109.217 -0.791887 106.217 1.34146 104.662L19.2394 91.6249C42.3504 74.7902 51.6163 45.9523 41.6522 21.8706L33.9356 3.22085C33.0158 0.997372 36.3165 -0.90169 37.7765 1.01094L50.0214 17.0553C65.8328 37.7726 95.4209 44.2556 121.59 32.7366L141.856 23.8158C144.273 22.7525 145.999 25.753 143.865 27.3075L125.968 40.3449C102.857 57.1795 93.5909 86.0174 103.555 110.099L111.272 128.749C112.191 130.972 108.891 132.871 107.431 130.959L95.1858 114.915C79.3743 94.197 49.7863 87.714 23.6168 99.2332L3.35043 108.154Z" fill="#F2994A"/>
</svg>
