<svg width="145" height="132" viewBox="0 0 145 132" fill="none" xmlns="http://www.w3.org/2000/svg">
<path opacity="0.762557" d="M3.35043 108.154C0.934498 109.217 -0.791887 106.216 1.34146 104.662L19.2394 91.6248C42.3504 74.79 51.6163 45.9521 41.6522 21.8705L33.9356 3.22073C33.0158 0.99725 36.3165 -0.901812 37.7765 1.01082L50.0214 17.0551C65.8328 37.7725 95.4209 44.2555 121.59 32.7365L141.856 23.8157C144.273 22.7524 145.999 25.7529 143.865 27.3074L125.968 40.3447C102.857 57.1794 93.5909 86.0173 103.555 110.099L111.272 128.749C112.191 130.972 108.891 132.871 107.431 130.959L95.1858 114.914C79.3743 94.1969 49.7863 87.7139 23.6168 99.2331L3.35043 108.154Z" fill="#F2994A"/>
</svg>
