<svg width="62" height="199" viewBox="0 0 62 199" fill="none" xmlns="http://www.w3.org/2000/svg">
<path opacity="0.855608" d="M33.9369 -6.56372e-05C45.7641 2.03017 57.0367 6.59737 67.1109 13.4408C77.1851 20.2842 85.8637 29.2698 92.6511 39.8845C99.4386 50.4992 104.202 62.5352 106.669 75.3052C109.137 88.0753 109.26 101.329 107.031 114.311C104.803 127.292 100.267 139.746 93.6823 150.962C87.0975 162.178 78.5929 171.937 68.6541 179.68C58.7153 187.424 47.537 193.001 35.7573 196.093C23.9776 199.185 11.8272 199.731 0 197.701L5.57387 165.23C13.516 166.594 21.6752 166.227 29.5854 164.15C37.4957 162.074 45.0021 158.329 51.6762 153.129C58.3503 147.929 64.0612 141.376 68.483 133.844C72.9048 126.313 75.9509 117.949 77.4472 109.232C78.9436 100.515 78.8609 91.6148 77.2041 83.0395C75.5472 74.4642 72.3485 66.3818 67.7906 59.2539C63.2327 52.1259 57.4049 46.092 50.6399 41.4965C43.8749 36.9011 36.3052 33.8341 28.363 32.4708L33.9369 -6.56372e-05Z" fill="#9B51E0"/>
</svg>
